<mxfile host="Electron" agent="Mozilla/5.0 (Windows NT 10.0; Win64; x64) AppleWebKit/537.36 (KHTML, like Gecko) draw.io/26.2.2 Chrome/134.0.6998.178 Electron/35.1.2 Safari/537.36" version="26.2.2">
  <diagram name="PÃ¡gina-1" id="U0x4QqFGA0qe4CX4KeLJ">
    <mxGraphModel dx="2319" dy="1407" grid="1" gridSize="10" guides="1" tooltips="1" connect="1" arrows="1" fold="1" page="1" pageScale="1" pageWidth="1169" pageHeight="827" math="0" shadow="0">
      <root>
        <mxCell id="0" />
        <mxCell id="1" parent="0" />
        <mxCell id="pTcU2Q1t1XkEA1g0GBqn-1" value="Jugador" style="rounded=0;whiteSpace=wrap;html=1;" parent="1" vertex="1">
          <mxGeometry x="90" y="40" width="120" height="60" as="geometry" />
        </mxCell>
        <mxCell id="pTcU2Q1t1XkEA1g0GBqn-2" value="JugadorProfesional" style="rounded=0;whiteSpace=wrap;html=1;" parent="1" vertex="1">
          <mxGeometry x="90" y="250" width="120" height="60" as="geometry" />
        </mxCell>
        <mxCell id="pTcU2Q1t1XkEA1g0GBqn-3" value="Equipos" style="rounded=0;whiteSpace=wrap;html=1;" parent="1" vertex="1">
          <mxGeometry x="610" y="250" width="120" height="60" as="geometry" />
        </mxCell>
        <mxCell id="pTcU2Q1t1XkEA1g0GBqn-4" value="Partida" style="rounded=0;whiteSpace=wrap;html=1;" parent="1" vertex="1">
          <mxGeometry x="610" y="40" width="120" height="60" as="geometry" />
        </mxCell>
        <mxCell id="pTcU2Q1t1XkEA1g0GBqn-5" value="Mapa" style="rounded=0;whiteSpace=wrap;html=1;" parent="1" vertex="1">
          <mxGeometry x="920" y="40" width="120" height="60" as="geometry" />
        </mxCell>
        <mxCell id="pTcU2Q1t1XkEA1g0GBqn-7" value="Torneos" style="rounded=0;whiteSpace=wrap;html=1;" parent="1" vertex="1">
          <mxGeometry x="920" y="250" width="120" height="60" as="geometry" />
        </mxCell>
        <mxCell id="pTcU2Q1t1XkEA1g0GBqn-9" value="Arma" style="rounded=0;whiteSpace=wrap;html=1;" parent="1" vertex="1">
          <mxGeometry x="360" y="-170" width="120" height="60" as="geometry" />
        </mxCell>
        <mxCell id="pTcU2Q1t1XkEA1g0GBqn-10" value="Skins" style="rounded=0;whiteSpace=wrap;html=1;" parent="1" vertex="1">
          <mxGeometry x="90" y="-170" width="120" height="60" as="geometry" />
        </mxCell>
        <mxCell id="pTcU2Q1t1XkEA1g0GBqn-11" value="" style="endArrow=none;html=1;rounded=0;entryX=0.5;entryY=1;entryDx=0;entryDy=0;exitX=1;exitY=0.5;exitDx=0;exitDy=0;" parent="1" source="pTcU2Q1t1XkEA1g0GBqn-12" target="pTcU2Q1t1XkEA1g0GBqn-1" edge="1">
          <mxGeometry width="50" height="50" relative="1" as="geometry">
            <mxPoint x="300" y="370" as="sourcePoint" />
            <mxPoint x="350" y="320" as="targetPoint" />
          </mxGeometry>
        </mxCell>
        <mxCell id="pTcU2Q1t1XkEA1g0GBqn-13" value="" style="endArrow=none;html=1;rounded=0;entryX=0;entryY=0.5;entryDx=0;entryDy=0;exitX=0.5;exitY=0;exitDx=0;exitDy=0;" parent="1" source="pTcU2Q1t1XkEA1g0GBqn-2" target="pTcU2Q1t1XkEA1g0GBqn-12" edge="1">
          <mxGeometry width="50" height="50" relative="1" as="geometry">
            <mxPoint x="150" y="250" as="sourcePoint" />
            <mxPoint x="150" y="100" as="targetPoint" />
          </mxGeometry>
        </mxCell>
        <mxCell id="pTcU2Q1t1XkEA1g0GBqn-12" value="" style="triangle;whiteSpace=wrap;html=1;rotation=-90;" parent="1" vertex="1">
          <mxGeometry x="120" y="130" width="60" height="80" as="geometry" />
        </mxCell>
        <mxCell id="pTcU2Q1t1XkEA1g0GBqn-18" value="" style="endArrow=none;html=1;rounded=0;entryX=0.5;entryY=1;entryDx=0;entryDy=0;exitX=0.25;exitY=0;exitDx=0;exitDy=0;" parent="1" source="pTcU2Q1t1XkEA1g0GBqn-3" target="pTcU2Q1t1XkEA1g0GBqn-16" edge="1">
          <mxGeometry width="50" height="50" relative="1" as="geometry">
            <mxPoint x="670" y="250" as="sourcePoint" />
            <mxPoint x="675" y="100" as="targetPoint" />
          </mxGeometry>
        </mxCell>
        <mxCell id="pTcU2Q1t1XkEA1g0GBqn-16" value="juega 1" style="rhombus;whiteSpace=wrap;html=1;" parent="1" vertex="1">
          <mxGeometry x="570" y="140" width="80" height="80" as="geometry" />
        </mxCell>
        <mxCell id="pTcU2Q1t1XkEA1g0GBqn-21" value="" style="endArrow=none;html=1;rounded=0;entryX=0;entryY=0.5;entryDx=0;entryDy=0;exitX=1;exitY=0.5;exitDx=0;exitDy=0;" parent="1" source="pTcU2Q1t1XkEA1g0GBqn-15" target="pTcU2Q1t1XkEA1g0GBqn-7" edge="1">
          <mxGeometry width="50" height="50" relative="1" as="geometry">
            <mxPoint x="630" y="350" as="sourcePoint" />
            <mxPoint x="680" y="300" as="targetPoint" />
          </mxGeometry>
        </mxCell>
        <mxCell id="pTcU2Q1t1XkEA1g0GBqn-22" value="" style="endArrow=none;html=1;rounded=0;entryX=0;entryY=0.5;entryDx=0;entryDy=0;exitX=1;exitY=0.5;exitDx=0;exitDy=0;" parent="1" source="pTcU2Q1t1XkEA1g0GBqn-3" target="pTcU2Q1t1XkEA1g0GBqn-15" edge="1">
          <mxGeometry width="50" height="50" relative="1" as="geometry">
            <mxPoint x="730" y="280" as="sourcePoint" />
            <mxPoint x="920" y="280" as="targetPoint" />
          </mxGeometry>
        </mxCell>
        <mxCell id="pTcU2Q1t1XkEA1g0GBqn-15" value="gana" style="rhombus;whiteSpace=wrap;html=1;" parent="1" vertex="1">
          <mxGeometry x="790" y="240" width="80" height="80" as="geometry" />
        </mxCell>
        <mxCell id="pTcU2Q1t1XkEA1g0GBqn-26" value="" style="endArrow=none;html=1;rounded=0;exitX=1;exitY=0.5;exitDx=0;exitDy=0;entryX=0;entryY=0.5;entryDx=0;entryDy=0;" parent="1" source="pTcU2Q1t1XkEA1g0GBqn-25" target="pTcU2Q1t1XkEA1g0GBqn-5" edge="1">
          <mxGeometry width="50" height="50" relative="1" as="geometry">
            <mxPoint x="760" y="340" as="sourcePoint" />
            <mxPoint x="810" y="290" as="targetPoint" />
          </mxGeometry>
        </mxCell>
        <mxCell id="pTcU2Q1t1XkEA1g0GBqn-27" value="" style="endArrow=none;html=1;rounded=0;exitX=1;exitY=0.5;exitDx=0;exitDy=0;entryX=0;entryY=0.5;entryDx=0;entryDy=0;" parent="1" source="pTcU2Q1t1XkEA1g0GBqn-4" target="pTcU2Q1t1XkEA1g0GBqn-25" edge="1">
          <mxGeometry width="50" height="50" relative="1" as="geometry">
            <mxPoint x="730" y="70" as="sourcePoint" />
            <mxPoint x="920" y="70" as="targetPoint" />
          </mxGeometry>
        </mxCell>
        <mxCell id="pTcU2Q1t1XkEA1g0GBqn-25" value="tiene" style="rhombus;whiteSpace=wrap;html=1;" parent="1" vertex="1">
          <mxGeometry x="790" y="30" width="80" height="80" as="geometry" />
        </mxCell>
        <mxCell id="pTcU2Q1t1XkEA1g0GBqn-29" value="" style="endArrow=none;html=1;rounded=0;exitX=0.5;exitY=1;exitDx=0;exitDy=0;entryX=0.5;entryY=0;entryDx=0;entryDy=0;" parent="1" source="pTcU2Q1t1XkEA1g0GBqn-28" target="pTcU2Q1t1XkEA1g0GBqn-1" edge="1">
          <mxGeometry width="50" height="50" relative="1" as="geometry">
            <mxPoint x="170" y="340" as="sourcePoint" />
            <mxPoint x="80" y="70" as="targetPoint" />
          </mxGeometry>
        </mxCell>
        <mxCell id="pTcU2Q1t1XkEA1g0GBqn-31" value="" style="endArrow=none;html=1;rounded=0;exitX=0.5;exitY=1;exitDx=0;exitDy=0;" parent="1" source="pTcU2Q1t1XkEA1g0GBqn-10" target="pTcU2Q1t1XkEA1g0GBqn-28" edge="1">
          <mxGeometry width="50" height="50" relative="1" as="geometry">
            <mxPoint x="-130" y="70" as="sourcePoint" />
            <mxPoint x="80" y="70" as="targetPoint" />
          </mxGeometry>
        </mxCell>
        <mxCell id="pTcU2Q1t1XkEA1g0GBqn-28" value="tiene" style="rhombus;whiteSpace=wrap;html=1;" parent="1" vertex="1">
          <mxGeometry x="110" y="-70" width="80" height="80" as="geometry" />
        </mxCell>
        <mxCell id="pTcU2Q1t1XkEA1g0GBqn-34" value="" style="endArrow=none;html=1;rounded=0;exitX=0;exitY=0.5;exitDx=0;exitDy=0;entryX=1;entryY=0.5;entryDx=0;entryDy=0;" parent="1" source="pTcU2Q1t1XkEA1g0GBqn-32" target="pTcU2Q1t1XkEA1g0GBqn-10" edge="1">
          <mxGeometry width="50" height="50" relative="1" as="geometry">
            <mxPoint x="-80" y="-110" as="sourcePoint" />
            <mxPoint x="-50" y="10" as="targetPoint" />
          </mxGeometry>
        </mxCell>
        <mxCell id="pTcU2Q1t1XkEA1g0GBqn-36" value="" style="endArrow=none;html=1;rounded=0;exitX=0;exitY=0.5;exitDx=0;exitDy=0;" parent="1" source="pTcU2Q1t1XkEA1g0GBqn-9" target="pTcU2Q1t1XkEA1g0GBqn-32" edge="1">
          <mxGeometry width="50" height="50" relative="1" as="geometry">
            <mxPoint x="370" y="-140" as="sourcePoint" />
            <mxPoint x="-50" y="-10" as="targetPoint" />
          </mxGeometry>
        </mxCell>
        <mxCell id="pTcU2Q1t1XkEA1g0GBqn-32" value="pertenece" style="rhombus;whiteSpace=wrap;html=1;" parent="1" vertex="1">
          <mxGeometry x="240" y="-180" width="80" height="80" as="geometry" />
        </mxCell>
        <mxCell id="pTcU2Q1t1XkEA1g0GBqn-37" value="estatistica" style="rhombus;whiteSpace=wrap;html=1;" parent="1" vertex="1">
          <mxGeometry x="380" y="-40" width="80" height="80" as="geometry" />
        </mxCell>
        <mxCell id="pTcU2Q1t1XkEA1g0GBqn-38" value="" style="endArrow=none;html=1;rounded=0;exitX=1;exitY=0.5;exitDx=0;exitDy=0;entryX=0;entryY=0.5;entryDx=0;entryDy=0;" parent="1" source="pTcU2Q1t1XkEA1g0GBqn-1" target="pTcU2Q1t1XkEA1g0GBqn-37" edge="1">
          <mxGeometry width="50" height="50" relative="1" as="geometry">
            <mxPoint x="640" y="-40" as="sourcePoint" />
            <mxPoint x="690" y="-90" as="targetPoint" />
          </mxGeometry>
        </mxCell>
        <mxCell id="pTcU2Q1t1XkEA1g0GBqn-39" value="" style="endArrow=none;html=1;rounded=0;exitX=0;exitY=0.5;exitDx=0;exitDy=0;entryX=1;entryY=0.5;entryDx=0;entryDy=0;" parent="1" source="pTcU2Q1t1XkEA1g0GBqn-4" target="pTcU2Q1t1XkEA1g0GBqn-37" edge="1">
          <mxGeometry width="50" height="50" relative="1" as="geometry">
            <mxPoint x="640" y="-40" as="sourcePoint" />
            <mxPoint x="690" y="-90" as="targetPoint" />
          </mxGeometry>
        </mxCell>
        <mxCell id="pTcU2Q1t1XkEA1g0GBqn-40" value="" style="endArrow=none;html=1;rounded=0;exitX=0.5;exitY=0;exitDx=0;exitDy=0;entryX=0.5;entryY=1;entryDx=0;entryDy=0;" parent="1" source="pTcU2Q1t1XkEA1g0GBqn-37" target="pTcU2Q1t1XkEA1g0GBqn-9" edge="1">
          <mxGeometry width="50" height="50" relative="1" as="geometry">
            <mxPoint x="640" y="-60" as="sourcePoint" />
            <mxPoint x="690" y="-110" as="targetPoint" />
          </mxGeometry>
        </mxCell>
        <mxCell id="pTcU2Q1t1XkEA1g0GBqn-41" value="" style="endArrow=none;html=1;rounded=0;entryX=0.25;entryY=1;entryDx=0;entryDy=0;exitX=0.5;exitY=0;exitDx=0;exitDy=0;" parent="1" source="pTcU2Q1t1XkEA1g0GBqn-16" target="pTcU2Q1t1XkEA1g0GBqn-4" edge="1">
          <mxGeometry width="50" height="50" relative="1" as="geometry">
            <mxPoint x="640" y="20" as="sourcePoint" />
            <mxPoint x="690" y="-30" as="targetPoint" />
          </mxGeometry>
        </mxCell>
        <mxCell id="pTcU2Q1t1XkEA1g0GBqn-42" value="historia" style="rhombus;whiteSpace=wrap;html=1;" parent="1" vertex="1">
          <mxGeometry x="380" y="150" width="80" height="80" as="geometry" />
        </mxCell>
        <mxCell id="pTcU2Q1t1XkEA1g0GBqn-43" value="" style="endArrow=none;html=1;rounded=0;exitX=1;exitY=0;exitDx=0;exitDy=0;entryX=0;entryY=0.5;entryDx=0;entryDy=0;" parent="1" source="pTcU2Q1t1XkEA1g0GBqn-2" target="pTcU2Q1t1XkEA1g0GBqn-42" edge="1">
          <mxGeometry width="50" height="50" relative="1" as="geometry">
            <mxPoint x="360" y="130" as="sourcePoint" />
            <mxPoint x="410" y="80" as="targetPoint" />
            <Array as="points">
              <mxPoint x="300" y="190" />
            </Array>
          </mxGeometry>
        </mxCell>
        <mxCell id="pTcU2Q1t1XkEA1g0GBqn-44" value="" style="endArrow=none;html=1;rounded=0;exitX=0;exitY=0;exitDx=0;exitDy=0;entryX=1;entryY=0.5;entryDx=0;entryDy=0;" parent="1" source="pTcU2Q1t1XkEA1g0GBqn-3" target="pTcU2Q1t1XkEA1g0GBqn-42" edge="1">
          <mxGeometry width="50" height="50" relative="1" as="geometry">
            <mxPoint x="270" y="320" as="sourcePoint" />
            <mxPoint x="390" y="410" as="targetPoint" />
            <Array as="points">
              <mxPoint x="540" y="190" />
            </Array>
          </mxGeometry>
        </mxCell>
        <mxCell id="t2NmC8bgMb-thkgO7jFg-15" value="" style="triangle;whiteSpace=wrap;html=1;rotation=-90;" parent="1" vertex="1">
          <mxGeometry x="120" y="320" width="60" height="80" as="geometry" />
        </mxCell>
        <mxCell id="t2NmC8bgMb-thkgO7jFg-16" value="" style="endArrow=none;html=1;rounded=0;entryX=0.5;entryY=1;entryDx=0;entryDy=0;exitX=1;exitY=0.5;exitDx=0;exitDy=0;" parent="1" source="t2NmC8bgMb-thkgO7jFg-15" target="pTcU2Q1t1XkEA1g0GBqn-2" edge="1">
          <mxGeometry width="50" height="50" relative="1" as="geometry">
            <mxPoint x="420" y="310" as="sourcePoint" />
            <mxPoint x="470" y="260" as="targetPoint" />
          </mxGeometry>
        </mxCell>
        <mxCell id="t2NmC8bgMb-thkgO7jFg-17" value="Entrenador" style="rounded=0;whiteSpace=wrap;html=1;" parent="1" vertex="1">
          <mxGeometry x="360" y="345" width="120" height="60" as="geometry" />
        </mxCell>
        <mxCell id="t2NmC8bgMb-thkgO7jFg-18" value="" style="endArrow=none;html=1;rounded=0;exitX=0;exitY=0.5;exitDx=0;exitDy=0;entryX=0;entryY=0.5;entryDx=0;entryDy=0;" parent="1" source="t2NmC8bgMb-thkgO7jFg-15" target="t2NmC8bgMb-thkgO7jFg-17" edge="1">
          <mxGeometry width="50" height="50" relative="1" as="geometry">
            <mxPoint x="420" y="218" as="sourcePoint" />
            <mxPoint x="470" y="168" as="targetPoint" />
            <Array as="points">
              <mxPoint x="150" y="418" />
              <mxPoint x="330" y="420" />
              <mxPoint x="330" y="375" />
            </Array>
          </mxGeometry>
        </mxCell>
        <mxCell id="t2NmC8bgMb-thkgO7jFg-21" value="#id" style="ellipse;whiteSpace=wrap;html=1;" parent="1" vertex="1">
          <mxGeometry x="30" y="-40" width="80" height="50" as="geometry" />
        </mxCell>
        <mxCell id="t2NmC8bgMb-thkgO7jFg-22" value="jugadorRetirado" style="ellipse;whiteSpace=wrap;html=1;" parent="1" vertex="1">
          <mxGeometry x="370" y="450" width="100" height="50" as="geometry" />
        </mxCell>
        <mxCell id="t2NmC8bgMb-thkgO7jFg-23" value="apellido" style="ellipse;whiteSpace=wrap;html=1;" parent="1" vertex="1">
          <mxGeometry x="-110" width="80" height="50" as="geometry" />
        </mxCell>
        <mxCell id="t2NmC8bgMb-thkgO7jFg-24" value="nickname" style="ellipse;whiteSpace=wrap;html=1;" parent="1" vertex="1">
          <mxGeometry x="50" y="120" width="80" height="50" as="geometry" />
        </mxCell>
        <mxCell id="t2NmC8bgMb-thkgO7jFg-25" value="edad" style="ellipse;whiteSpace=wrap;html=1;" parent="1" vertex="1">
          <mxGeometry x="-130" y="100" width="80" height="50" as="geometry" />
        </mxCell>
        <mxCell id="t2NmC8bgMb-thkgO7jFg-26" value="paisDeNacim" style="ellipse;whiteSpace=wrap;html=1;" parent="1" vertex="1">
          <mxGeometry x="-40" y="120" width="80" height="50" as="geometry" />
        </mxCell>
        <mxCell id="t2NmC8bgMb-thkgO7jFg-27" value="ELO" style="ellipse;whiteSpace=wrap;html=1;" parent="1" vertex="1">
          <mxGeometry x="-180" y="45" width="80" height="50" as="geometry" />
        </mxCell>
        <mxCell id="t2NmC8bgMb-thkgO7jFg-29" value="rareza" style="ellipse;whiteSpace=wrap;html=1;" parent="1" vertex="1">
          <mxGeometry x="-30" y="-120" width="80" height="50" as="geometry" />
        </mxCell>
        <mxCell id="t2NmC8bgMb-thkgO7jFg-30" value="nombre" style="ellipse;whiteSpace=wrap;html=1;" parent="1" vertex="1">
          <mxGeometry x="-30" y="-200" width="80" height="50" as="geometry" />
        </mxCell>
        <mxCell id="t2NmC8bgMb-thkgO7jFg-31" value="#id" style="ellipse;whiteSpace=wrap;html=1;" parent="1" vertex="1">
          <mxGeometry x="200" y="-250" width="80" height="50" as="geometry" />
        </mxCell>
        <mxCell id="t2NmC8bgMb-thkgO7jFg-32" value="precio_mercado" style="ellipse;whiteSpace=wrap;html=1;" parent="1" vertex="1">
          <mxGeometry x="70" y="-250" width="100" height="50" as="geometry" />
        </mxCell>
        <mxCell id="t2NmC8bgMb-thkgO7jFg-33" value="#id" style="ellipse;whiteSpace=wrap;html=1;" parent="1" vertex="1">
          <mxGeometry x="340" y="-260" width="80" height="50" as="geometry" />
        </mxCell>
        <mxCell id="t2NmC8bgMb-thkgO7jFg-35" value="precio" style="ellipse;whiteSpace=wrap;html=1;" parent="1" vertex="1">
          <mxGeometry x="520" y="-200" width="80" height="50" as="geometry" />
        </mxCell>
        <mxCell id="t2NmC8bgMb-thkgO7jFg-36" value="disponible_para" style="ellipse;whiteSpace=wrap;html=1;" parent="1" vertex="1">
          <mxGeometry x="520" y="-130" width="130" height="50" as="geometry" />
        </mxCell>
        <mxCell id="t2NmC8bgMb-thkgO7jFg-37" value="salario" style="ellipse;whiteSpace=wrap;html=1;" parent="1" vertex="1">
          <mxGeometry x="270" y="100" width="80" height="50" as="geometry" />
        </mxCell>
        <mxCell id="t2NmC8bgMb-thkgO7jFg-38" value="fechaEntrada" style="ellipse;whiteSpace=wrap;html=1;" parent="1" vertex="1">
          <mxGeometry x="380" y="70" width="80" height="50" as="geometry" />
        </mxCell>
        <mxCell id="t2NmC8bgMb-thkgO7jFg-39" value="fechaSalida" style="ellipse;whiteSpace=wrap;html=1;" parent="1" vertex="1">
          <mxGeometry x="490" y="100" width="80" height="50" as="geometry" />
        </mxCell>
        <mxCell id="t2NmC8bgMb-thkgO7jFg-40" value="" style="endArrow=none;html=1;rounded=0;exitX=0;exitY=0;exitDx=0;exitDy=0;entryX=1;entryY=1;entryDx=0;entryDy=0;" parent="1" source="pTcU2Q1t1XkEA1g0GBqn-42" target="t2NmC8bgMb-thkgO7jFg-37" edge="1">
          <mxGeometry width="50" height="50" relative="1" as="geometry">
            <mxPoint x="220" y="70" as="sourcePoint" />
            <mxPoint x="270" y="20" as="targetPoint" />
          </mxGeometry>
        </mxCell>
        <mxCell id="t2NmC8bgMb-thkgO7jFg-41" value="" style="endArrow=none;html=1;rounded=0;exitX=0.5;exitY=0;exitDx=0;exitDy=0;entryX=0.5;entryY=1;entryDx=0;entryDy=0;" parent="1" source="pTcU2Q1t1XkEA1g0GBqn-42" target="t2NmC8bgMb-thkgO7jFg-38" edge="1">
          <mxGeometry width="50" height="50" relative="1" as="geometry">
            <mxPoint x="410" y="180" as="sourcePoint" />
            <mxPoint x="340" y="150" as="targetPoint" />
          </mxGeometry>
        </mxCell>
        <mxCell id="t2NmC8bgMb-thkgO7jFg-42" value="" style="endArrow=none;html=1;rounded=0;exitX=1;exitY=0;exitDx=0;exitDy=0;entryX=0;entryY=1;entryDx=0;entryDy=0;" parent="1" source="pTcU2Q1t1XkEA1g0GBqn-42" target="t2NmC8bgMb-thkgO7jFg-39" edge="1">
          <mxGeometry width="50" height="50" relative="1" as="geometry">
            <mxPoint x="430" y="160" as="sourcePoint" />
            <mxPoint x="430" y="120" as="targetPoint" />
          </mxGeometry>
        </mxCell>
        <mxCell id="t2NmC8bgMb-thkgO7jFg-43" value="rol" style="ellipse;whiteSpace=wrap;html=1;" parent="1" vertex="1">
          <mxGeometry x="-30" y="255" width="80" height="50" as="geometry" />
        </mxCell>
        <mxCell id="t2NmC8bgMb-thkgO7jFg-44" value="" style="endArrow=none;html=1;rounded=0;exitX=0;exitY=0.5;exitDx=0;exitDy=0;entryX=1;entryY=0.5;entryDx=0;entryDy=0;" parent="1" source="pTcU2Q1t1XkEA1g0GBqn-2" target="t2NmC8bgMb-thkgO7jFg-43" edge="1">
          <mxGeometry width="50" height="50" relative="1" as="geometry">
            <mxPoint x="-40" y="200" as="sourcePoint" />
            <mxPoint x="10" y="150" as="targetPoint" />
          </mxGeometry>
        </mxCell>
        <mxCell id="t2NmC8bgMb-thkgO7jFg-45" value="" style="endArrow=none;html=1;rounded=0;entryX=0.25;entryY=0;entryDx=0;entryDy=0;exitX=0.629;exitY=0.973;exitDx=0;exitDy=0;exitPerimeter=0;" parent="1" source="t2NmC8bgMb-thkgO7jFg-21" target="pTcU2Q1t1XkEA1g0GBqn-1" edge="1">
          <mxGeometry width="50" height="50" relative="1" as="geometry">
            <mxPoint x="-110" y="60" as="sourcePoint" />
            <mxPoint x="-60" y="10" as="targetPoint" />
          </mxGeometry>
        </mxCell>
        <mxCell id="t2NmC8bgMb-thkgO7jFg-46" value="" style="endArrow=none;html=1;rounded=0;entryX=1;entryY=1;entryDx=0;entryDy=0;exitX=-0.003;exitY=0.429;exitDx=0;exitDy=0;exitPerimeter=0;" parent="1" source="pTcU2Q1t1XkEA1g0GBqn-1" target="t2NmC8bgMb-thkgO7jFg-23" edge="1">
          <mxGeometry width="50" height="50" relative="1" as="geometry">
            <mxPoint x="-110" y="60" as="sourcePoint" />
            <mxPoint x="-60" y="10" as="targetPoint" />
          </mxGeometry>
        </mxCell>
        <mxCell id="t2NmC8bgMb-thkgO7jFg-47" value="" style="endArrow=none;html=1;rounded=0;entryX=1;entryY=0.5;entryDx=0;entryDy=0;exitX=0;exitY=0.5;exitDx=0;exitDy=0;" parent="1" source="pTcU2Q1t1XkEA1g0GBqn-1" target="t2NmC8bgMb-thkgO7jFg-27" edge="1">
          <mxGeometry width="50" height="50" relative="1" as="geometry">
            <mxPoint x="82" y="81.5" as="sourcePoint" />
            <mxPoint x="-50" y="58.5" as="targetPoint" />
          </mxGeometry>
        </mxCell>
        <mxCell id="t2NmC8bgMb-thkgO7jFg-48" value="" style="endArrow=none;html=1;rounded=0;entryX=1;entryY=0;entryDx=0;entryDy=0;exitX=0.009;exitY=0.636;exitDx=0;exitDy=0;exitPerimeter=0;" parent="1" source="pTcU2Q1t1XkEA1g0GBqn-1" target="t2NmC8bgMb-thkgO7jFg-25" edge="1">
          <mxGeometry width="50" height="50" relative="1" as="geometry">
            <mxPoint x="70" y="100" as="sourcePoint" />
            <mxPoint x="-90" y="80" as="targetPoint" />
          </mxGeometry>
        </mxCell>
        <mxCell id="t2NmC8bgMb-thkgO7jFg-49" value="" style="endArrow=none;html=1;rounded=0;entryX=0.5;entryY=0;entryDx=0;entryDy=0;exitX=0;exitY=0.75;exitDx=0;exitDy=0;" parent="1" source="pTcU2Q1t1XkEA1g0GBqn-1" target="t2NmC8bgMb-thkgO7jFg-26" edge="1">
          <mxGeometry width="50" height="50" relative="1" as="geometry">
            <mxPoint x="110" y="90" as="sourcePoint" />
            <mxPoint x="-80" y="90" as="targetPoint" />
          </mxGeometry>
        </mxCell>
        <mxCell id="t2NmC8bgMb-thkgO7jFg-50" value="" style="endArrow=none;html=1;rounded=0;entryX=0.5;entryY=0;entryDx=0;entryDy=0;exitX=0.141;exitY=1.004;exitDx=0;exitDy=0;exitPerimeter=0;" parent="1" source="pTcU2Q1t1XkEA1g0GBqn-1" target="t2NmC8bgMb-thkgO7jFg-24" edge="1">
          <mxGeometry width="50" height="50" relative="1" as="geometry">
            <mxPoint x="120" y="110" as="sourcePoint" />
            <mxPoint x="-70" y="100" as="targetPoint" />
          </mxGeometry>
        </mxCell>
        <mxCell id="t2NmC8bgMb-thkgO7jFg-51" value="" style="endArrow=none;html=1;rounded=0;entryX=0;entryY=0.75;entryDx=0;entryDy=0;exitX=1;exitY=0;exitDx=0;exitDy=0;" parent="1" source="t2NmC8bgMb-thkgO7jFg-29" target="pTcU2Q1t1XkEA1g0GBqn-10" edge="1">
          <mxGeometry width="50" height="50" relative="1" as="geometry">
            <mxPoint y="-140" as="sourcePoint" />
            <mxPoint x="50" y="-190" as="targetPoint" />
          </mxGeometry>
        </mxCell>
        <mxCell id="t2NmC8bgMb-thkgO7jFg-52" value="" style="endArrow=none;html=1;rounded=0;entryX=0;entryY=0.5;entryDx=0;entryDy=0;exitX=1;exitY=1;exitDx=0;exitDy=0;" parent="1" source="t2NmC8bgMb-thkgO7jFg-30" target="pTcU2Q1t1XkEA1g0GBqn-10" edge="1">
          <mxGeometry width="50" height="50" relative="1" as="geometry">
            <mxPoint x="48" y="-103" as="sourcePoint" />
            <mxPoint x="100" y="-115" as="targetPoint" />
          </mxGeometry>
        </mxCell>
        <mxCell id="t2NmC8bgMb-thkgO7jFg-53" value="" style="endArrow=none;html=1;rounded=0;entryX=0.25;entryY=0;entryDx=0;entryDy=0;exitX=0.5;exitY=1;exitDx=0;exitDy=0;" parent="1" source="t2NmC8bgMb-thkgO7jFg-32" target="pTcU2Q1t1XkEA1g0GBqn-10" edge="1">
          <mxGeometry width="50" height="50" relative="1" as="geometry">
            <mxPoint x="48" y="-147" as="sourcePoint" />
            <mxPoint x="100" y="-130" as="targetPoint" />
          </mxGeometry>
        </mxCell>
        <mxCell id="t2NmC8bgMb-thkgO7jFg-54" value="" style="endArrow=none;html=1;rounded=0;entryX=1;entryY=0;entryDx=0;entryDy=0;exitX=0.5;exitY=1;exitDx=0;exitDy=0;" parent="1" source="t2NmC8bgMb-thkgO7jFg-31" target="pTcU2Q1t1XkEA1g0GBqn-10" edge="1">
          <mxGeometry width="50" height="50" relative="1" as="geometry">
            <mxPoint x="130" y="-190" as="sourcePoint" />
            <mxPoint x="130" y="-160" as="targetPoint" />
          </mxGeometry>
        </mxCell>
        <mxCell id="t2NmC8bgMb-thkgO7jFg-57" value="" style="endArrow=none;html=1;rounded=0;entryX=0.25;entryY=0;entryDx=0;entryDy=0;exitX=0.5;exitY=1;exitDx=0;exitDy=0;" parent="1" edge="1">
          <mxGeometry width="50" height="50" relative="1" as="geometry">
            <mxPoint x="380" y="-210" as="sourcePoint" />
            <mxPoint x="390" y="-170" as="targetPoint" />
          </mxGeometry>
        </mxCell>
        <mxCell id="t2NmC8bgMb-thkgO7jFg-58" value="" style="endArrow=none;html=1;rounded=0;entryX=0.75;entryY=0;entryDx=0;entryDy=0;exitX=0.215;exitY=0.963;exitDx=0;exitDy=0;exitPerimeter=0;" parent="1" target="pTcU2Q1t1XkEA1g0GBqn-9" edge="1">
          <mxGeometry width="50" height="50" relative="1" as="geometry">
            <mxPoint x="477.2000000000003" y="-211.85000000000014" as="sourcePoint" />
            <mxPoint x="420" y="-170" as="targetPoint" />
          </mxGeometry>
        </mxCell>
        <mxCell id="t2NmC8bgMb-thkgO7jFg-59" value="" style="endArrow=none;html=1;rounded=0;entryX=1;entryY=0.25;entryDx=0;entryDy=0;exitX=0;exitY=0.5;exitDx=0;exitDy=0;" parent="1" source="t2NmC8bgMb-thkgO7jFg-35" target="pTcU2Q1t1XkEA1g0GBqn-9" edge="1">
          <mxGeometry width="50" height="50" relative="1" as="geometry">
            <mxPoint x="400" y="-190" as="sourcePoint" />
            <mxPoint x="410" y="-150" as="targetPoint" />
          </mxGeometry>
        </mxCell>
        <mxCell id="t2NmC8bgMb-thkgO7jFg-60" value="" style="endArrow=none;html=1;rounded=0;entryX=1;entryY=0.5;entryDx=0;entryDy=0;exitX=0;exitY=0;exitDx=0;exitDy=0;" parent="1" source="t2NmC8bgMb-thkgO7jFg-36" target="pTcU2Q1t1XkEA1g0GBqn-9" edge="1">
          <mxGeometry width="50" height="50" relative="1" as="geometry">
            <mxPoint x="530" y="-165" as="sourcePoint" />
            <mxPoint x="490" y="-145" as="targetPoint" />
          </mxGeometry>
        </mxCell>
        <mxCell id="t2NmC8bgMb-thkgO7jFg-61" value="" style="endArrow=none;html=1;rounded=0;entryX=0.5;entryY=1;entryDx=0;entryDy=0;exitX=0.5;exitY=0;exitDx=0;exitDy=0;" parent="1" source="t2NmC8bgMb-thkgO7jFg-22" target="t2NmC8bgMb-thkgO7jFg-17" edge="1">
          <mxGeometry width="50" height="50" relative="1" as="geometry">
            <mxPoint x="280" y="490" as="sourcePoint" />
            <mxPoint x="330" y="440" as="targetPoint" />
          </mxGeometry>
        </mxCell>
        <mxCell id="t2NmC8bgMb-thkgO7jFg-63" value="#id" style="ellipse;whiteSpace=wrap;html=1;" parent="1" vertex="1">
          <mxGeometry x="540" y="-30" width="80" height="50" as="geometry" />
        </mxCell>
        <mxCell id="t2NmC8bgMb-thkgO7jFg-64" value="resultado" style="ellipse;whiteSpace=wrap;html=1;" parent="1" vertex="1">
          <mxGeometry x="640" y="-40" width="80" height="50" as="geometry" />
        </mxCell>
        <mxCell id="t2NmC8bgMb-thkgO7jFg-65" value="fecha" style="ellipse;whiteSpace=wrap;html=1;" parent="1" vertex="1">
          <mxGeometry x="740" y="-30" width="80" height="50" as="geometry" />
        </mxCell>
        <mxCell id="t2NmC8bgMb-thkgO7jFg-66" value="" style="endArrow=none;html=1;rounded=0;entryX=1;entryY=1;entryDx=0;entryDy=0;exitX=0.25;exitY=0;exitDx=0;exitDy=0;" parent="1" source="pTcU2Q1t1XkEA1g0GBqn-4" target="t2NmC8bgMb-thkgO7jFg-63" edge="1">
          <mxGeometry width="50" height="50" relative="1" as="geometry">
            <mxPoint x="670" y="150" as="sourcePoint" />
            <mxPoint x="720" y="100" as="targetPoint" />
          </mxGeometry>
        </mxCell>
        <mxCell id="t2NmC8bgMb-thkgO7jFg-67" value="" style="endArrow=none;html=1;rounded=0;entryX=0.5;entryY=1;entryDx=0;entryDy=0;exitX=0.583;exitY=0;exitDx=0;exitDy=0;exitPerimeter=0;" parent="1" source="pTcU2Q1t1XkEA1g0GBqn-4" target="t2NmC8bgMb-thkgO7jFg-64" edge="1">
          <mxGeometry width="50" height="50" relative="1" as="geometry">
            <mxPoint x="650" y="50" as="sourcePoint" />
            <mxPoint x="590" y="30" as="targetPoint" />
          </mxGeometry>
        </mxCell>
        <mxCell id="t2NmC8bgMb-thkgO7jFg-68" value="" style="endArrow=none;html=1;rounded=0;entryX=0;entryY=1;entryDx=0;entryDy=0;exitX=0.75;exitY=0;exitDx=0;exitDy=0;" parent="1" source="pTcU2Q1t1XkEA1g0GBqn-4" target="t2NmC8bgMb-thkgO7jFg-65" edge="1">
          <mxGeometry width="50" height="50" relative="1" as="geometry">
            <mxPoint x="660" y="60" as="sourcePoint" />
            <mxPoint x="600" y="40" as="targetPoint" />
          </mxGeometry>
        </mxCell>
        <mxCell id="t2NmC8bgMb-thkgO7jFg-70" value="pais" style="ellipse;whiteSpace=wrap;html=1;" parent="1" vertex="1">
          <mxGeometry x="680" y="392" width="80" height="50" as="geometry" />
        </mxCell>
        <mxCell id="t2NmC8bgMb-thkgO7jFg-71" value="fechaCreacion" style="ellipse;whiteSpace=wrap;html=1;" parent="1" vertex="1">
          <mxGeometry x="790" y="320" width="90" height="50" as="geometry" />
        </mxCell>
        <mxCell id="t2NmC8bgMb-thkgO7jFg-72" value="" style="endArrow=none;html=1;rounded=0;entryX=0;entryY=0.5;entryDx=0;entryDy=0;exitX=1;exitY=1;exitDx=0;exitDy=0;" parent="1" source="pTcU2Q1t1XkEA1g0GBqn-3" target="t2NmC8bgMb-thkgO7jFg-71" edge="1">
          <mxGeometry width="50" height="50" relative="1" as="geometry">
            <mxPoint x="690" y="310" as="sourcePoint" />
            <mxPoint x="742" y="283" as="targetPoint" />
          </mxGeometry>
        </mxCell>
        <mxCell id="t2NmC8bgMb-thkgO7jFg-73" value="" style="endArrow=none;html=1;rounded=0;entryX=0;entryY=0;entryDx=0;entryDy=0;exitX=0.75;exitY=1;exitDx=0;exitDy=0;" parent="1" source="pTcU2Q1t1XkEA1g0GBqn-3" target="t2NmC8bgMb-thkgO7jFg-128" edge="1">
          <mxGeometry width="50" height="50" relative="1" as="geometry">
            <mxPoint x="670" y="327.5" as="sourcePoint" />
            <mxPoint x="800" y="370" as="targetPoint" />
          </mxGeometry>
        </mxCell>
        <mxCell id="t2NmC8bgMb-thkgO7jFg-74" value="" style="endArrow=none;html=1;rounded=0;entryX=0.5;entryY=0;entryDx=0;entryDy=0;" parent="1" source="pTcU2Q1t1XkEA1g0GBqn-3" target="t2NmC8bgMb-thkgO7jFg-70" edge="1">
          <mxGeometry width="50" height="50" relative="1" as="geometry">
            <mxPoint x="700" y="340" as="sourcePoint" />
            <mxPoint x="750" y="375" as="targetPoint" />
          </mxGeometry>
        </mxCell>
        <mxCell id="t2NmC8bgMb-thkgO7jFg-75" value="#id" style="ellipse;whiteSpace=wrap;html=1;" parent="1" vertex="1">
          <mxGeometry x="1070" y="255" width="80" height="50" as="geometry" />
        </mxCell>
        <mxCell id="t2NmC8bgMb-thkgO7jFg-76" value="nombre" style="ellipse;whiteSpace=wrap;html=1;" parent="1" vertex="1">
          <mxGeometry x="1070" y="340" width="80" height="50" as="geometry" />
        </mxCell>
        <mxCell id="t2NmC8bgMb-thkgO7jFg-77" value="premio" style="ellipse;whiteSpace=wrap;html=1;" parent="1" vertex="1">
          <mxGeometry x="940" y="350" width="80" height="50" as="geometry" />
        </mxCell>
        <mxCell id="t2NmC8bgMb-thkgO7jFg-78" value="#id" style="ellipse;whiteSpace=wrap;html=1;" parent="1" vertex="1">
          <mxGeometry x="940" y="-40" width="80" height="50" as="geometry" />
        </mxCell>
        <mxCell id="t2NmC8bgMb-thkgO7jFg-81" value="&lt;u&gt;n&lt;/u&gt; &lt;u&gt;o&lt;/u&gt;&amp;nbsp;&lt;u&gt;m&lt;/u&gt;&amp;nbsp;&lt;u&gt;b&lt;/u&gt; &lt;u&gt;r&lt;/u&gt;&amp;nbsp;&lt;u&gt;e&lt;/u&gt;" style="ellipse;whiteSpace=wrap;html=1;" parent="1" vertex="1">
          <mxGeometry x="1070" y="45" width="80" height="50" as="geometry" />
        </mxCell>
        <mxCell id="t2NmC8bgMb-thkgO7jFg-82" value="" style="endArrow=none;html=1;rounded=0;entryX=0.5;entryY=1;entryDx=0;entryDy=0;exitX=0.5;exitY=0;exitDx=0;exitDy=0;" parent="1" source="pTcU2Q1t1XkEA1g0GBqn-5" target="t2NmC8bgMb-thkgO7jFg-78" edge="1">
          <mxGeometry width="50" height="50" relative="1" as="geometry">
            <mxPoint x="870" y="50" as="sourcePoint" />
            <mxPoint x="920" as="targetPoint" />
          </mxGeometry>
        </mxCell>
        <mxCell id="t2NmC8bgMb-thkgO7jFg-83" value="" style="endArrow=none;html=1;rounded=0;entryX=0;entryY=0.5;entryDx=0;entryDy=0;exitX=1;exitY=0.5;exitDx=0;exitDy=0;" parent="1" source="pTcU2Q1t1XkEA1g0GBqn-5" target="t2NmC8bgMb-thkgO7jFg-81" edge="1">
          <mxGeometry width="50" height="50" relative="1" as="geometry">
            <mxPoint x="990" y="50" as="sourcePoint" />
            <mxPoint x="990" y="20" as="targetPoint" />
          </mxGeometry>
        </mxCell>
        <mxCell id="t2NmC8bgMb-thkgO7jFg-84" value="" style="endArrow=none;html=1;rounded=0;entryX=0;entryY=0.5;entryDx=0;entryDy=0;exitX=1;exitY=0.5;exitDx=0;exitDy=0;" parent="1" source="pTcU2Q1t1XkEA1g0GBqn-7" target="t2NmC8bgMb-thkgO7jFg-75" edge="1">
          <mxGeometry width="50" height="50" relative="1" as="geometry">
            <mxPoint x="1000" y="60" as="sourcePoint" />
            <mxPoint x="1000" y="30" as="targetPoint" />
          </mxGeometry>
        </mxCell>
        <mxCell id="t2NmC8bgMb-thkgO7jFg-85" value="" style="endArrow=none;html=1;rounded=0;entryX=0.5;entryY=1;entryDx=0;entryDy=0;exitX=0.5;exitY=0;exitDx=0;exitDy=0;" parent="1" source="t2NmC8bgMb-thkgO7jFg-77" target="pTcU2Q1t1XkEA1g0GBqn-7" edge="1">
          <mxGeometry width="50" height="50" relative="1" as="geometry">
            <mxPoint x="1010" y="70" as="sourcePoint" />
            <mxPoint x="1010" y="40" as="targetPoint" />
          </mxGeometry>
        </mxCell>
        <mxCell id="t2NmC8bgMb-thkgO7jFg-86" value="" style="endArrow=none;html=1;rounded=0;entryX=0;entryY=0;entryDx=0;entryDy=0;exitX=1;exitY=1;exitDx=0;exitDy=0;" parent="1" source="pTcU2Q1t1XkEA1g0GBqn-7" target="t2NmC8bgMb-thkgO7jFg-76" edge="1">
          <mxGeometry width="50" height="50" relative="1" as="geometry">
            <mxPoint x="1020" y="80" as="sourcePoint" />
            <mxPoint x="1020" y="50" as="targetPoint" />
          </mxGeometry>
        </mxCell>
        <mxCell id="t2NmC8bgMb-thkgO7jFg-87" value="tipo" style="ellipse;whiteSpace=wrap;html=1;" parent="1" vertex="1">
          <mxGeometry x="1060" y="-30" width="80" height="50" as="geometry" />
        </mxCell>
        <mxCell id="t2NmC8bgMb-thkgO7jFg-88" value="" style="endArrow=none;html=1;rounded=0;entryX=0;entryY=1;entryDx=0;entryDy=0;exitX=1;exitY=0;exitDx=0;exitDy=0;" parent="1" source="pTcU2Q1t1XkEA1g0GBqn-5" target="t2NmC8bgMb-thkgO7jFg-87" edge="1">
          <mxGeometry width="50" height="50" relative="1" as="geometry">
            <mxPoint x="760" y="50" as="sourcePoint" />
            <mxPoint x="810" as="targetPoint" />
          </mxGeometry>
        </mxCell>
        <mxCell id="t2NmC8bgMb-thkgO7jFg-89" value="kills" style="ellipse;whiteSpace=wrap;html=1;" parent="1" vertex="1">
          <mxGeometry x="320" y="-90" width="80" height="50" as="geometry" />
        </mxCell>
        <mxCell id="t2NmC8bgMb-thkgO7jFg-90" value="death" style="ellipse;whiteSpace=wrap;html=1;" parent="1" vertex="1">
          <mxGeometry x="240" y="-40" width="80" height="50" as="geometry" />
        </mxCell>
        <mxCell id="t2NmC8bgMb-thkgO7jFg-91" value="" style="endArrow=none;html=1;rounded=0;entryX=0.25;entryY=0;entryDx=0;entryDy=0;exitX=1;exitY=1;exitDx=0;exitDy=0;" parent="1" source="t2NmC8bgMb-thkgO7jFg-89" edge="1">
          <mxGeometry width="50" height="50" relative="1" as="geometry">
            <mxPoint x="400" y="-70" as="sourcePoint" />
            <mxPoint x="410" y="-30" as="targetPoint" />
          </mxGeometry>
        </mxCell>
        <mxCell id="t2NmC8bgMb-thkgO7jFg-92" value="" style="endArrow=none;html=1;rounded=0;entryX=0;entryY=0;entryDx=0;entryDy=0;exitX=1;exitY=0.5;exitDx=0;exitDy=0;" parent="1" source="t2NmC8bgMb-thkgO7jFg-90" target="pTcU2Q1t1XkEA1g0GBqn-37" edge="1">
          <mxGeometry width="50" height="50" relative="1" as="geometry">
            <mxPoint x="350" y="-25" as="sourcePoint" />
            <mxPoint x="360" y="15" as="targetPoint" />
          </mxGeometry>
        </mxCell>
        <mxCell id="t2NmC8bgMb-thkgO7jFg-93" value="(0,n)" style="text;html=1;align=center;verticalAlign=middle;resizable=0;points=[];autosize=1;strokeColor=none;fillColor=none;" parent="1" vertex="1">
          <mxGeometry x="140" y="-110" width="50" height="30" as="geometry" />
        </mxCell>
        <mxCell id="t2NmC8bgMb-thkgO7jFg-94" value="(0,1)" style="text;html=1;align=center;verticalAlign=middle;resizable=0;points=[];autosize=1;strokeColor=none;fillColor=none;" parent="1" vertex="1">
          <mxGeometry x="150" y="10" width="50" height="30" as="geometry" />
        </mxCell>
        <mxCell id="t2NmC8bgMb-thkgO7jFg-95" value="(1,1)" style="text;html=1;align=center;verticalAlign=middle;resizable=0;points=[];autosize=1;strokeColor=none;fillColor=none;" parent="1" vertex="1">
          <mxGeometry x="320" y="-170" width="50" height="30" as="geometry" />
        </mxCell>
        <mxCell id="t2NmC8bgMb-thkgO7jFg-96" value="(0,n)" style="text;html=1;align=center;verticalAlign=middle;resizable=0;points=[];autosize=1;strokeColor=none;fillColor=none;" parent="1" vertex="1">
          <mxGeometry x="200" y="-170" width="50" height="30" as="geometry" />
        </mxCell>
        <mxCell id="t2NmC8bgMb-thkgO7jFg-97" value="(1,n)" style="text;html=1;align=center;verticalAlign=middle;resizable=0;points=[];autosize=1;strokeColor=none;fillColor=none;" parent="1" vertex="1">
          <mxGeometry x="420" y="-110" width="50" height="30" as="geometry" />
        </mxCell>
        <mxCell id="t2NmC8bgMb-thkgO7jFg-98" value="(1,n)" style="text;html=1;align=center;verticalAlign=middle;resizable=0;points=[];autosize=1;strokeColor=none;fillColor=none;" parent="1" vertex="1">
          <mxGeometry x="210" y="65" width="50" height="30" as="geometry" />
        </mxCell>
        <mxCell id="t2NmC8bgMb-thkgO7jFg-99" value="(1,n)" style="text;html=1;align=center;verticalAlign=middle;resizable=0;points=[];autosize=1;strokeColor=none;fillColor=none;" parent="1" vertex="1">
          <mxGeometry x="560" y="65" width="50" height="30" as="geometry" />
        </mxCell>
        <mxCell id="t2NmC8bgMb-thkgO7jFg-100" value="(0,n)" style="text;html=1;align=center;verticalAlign=middle;resizable=0;points=[];autosize=1;strokeColor=none;fillColor=none;" parent="1" vertex="1">
          <mxGeometry x="210" y="240" width="50" height="30" as="geometry" />
        </mxCell>
        <mxCell id="t2NmC8bgMb-thkgO7jFg-101" value="(0,n)" style="text;html=1;align=center;verticalAlign=middle;resizable=0;points=[];autosize=1;strokeColor=none;fillColor=none;" parent="1" vertex="1">
          <mxGeometry x="555" y="240" width="50" height="30" as="geometry" />
        </mxCell>
        <mxCell id="t2NmC8bgMb-thkgO7jFg-102" value="(0,n)" style="text;html=1;align=center;verticalAlign=middle;resizable=0;points=[];autosize=1;strokeColor=none;fillColor=none;" parent="1" vertex="1">
          <mxGeometry x="200" y="275" width="50" height="30" as="geometry" />
        </mxCell>
        <mxCell id="t2NmC8bgMb-thkgO7jFg-103" value="(0,1)" style="text;html=1;align=center;verticalAlign=middle;resizable=0;points=[];autosize=1;strokeColor=none;fillColor=none;" parent="1" vertex="1">
          <mxGeometry x="600" y="305" width="50" height="30" as="geometry" />
        </mxCell>
        <mxCell id="t2NmC8bgMb-thkgO7jFg-104" value="(0,1)" style="text;html=1;align=center;verticalAlign=middle;resizable=0;points=[];autosize=1;strokeColor=none;fillColor=none;" parent="1" vertex="1">
          <mxGeometry x="475" y="370" width="50" height="30" as="geometry" />
        </mxCell>
        <mxCell id="t2NmC8bgMb-thkgO7jFg-105" value="(0,n)" style="text;html=1;align=center;verticalAlign=middle;resizable=0;points=[];autosize=1;strokeColor=none;fillColor=none;" parent="1" vertex="1">
          <mxGeometry x="870" y="250" width="50" height="30" as="geometry" />
        </mxCell>
        <mxCell id="t2NmC8bgMb-thkgO7jFg-106" value="(0,1)" style="text;html=1;align=center;verticalAlign=middle;resizable=0;points=[];autosize=1;strokeColor=none;fillColor=none;" parent="1" vertex="1">
          <mxGeometry x="730" y="250" width="50" height="30" as="geometry" />
        </mxCell>
        <mxCell id="t2NmC8bgMb-thkgO7jFg-107" value="#id" style="ellipse;whiteSpace=wrap;html=1;" parent="1" vertex="1">
          <mxGeometry x="1070" y="255" width="80" height="50" as="geometry" />
        </mxCell>
        <mxCell id="t2NmC8bgMb-thkgO7jFg-108" value="fecha" style="ellipse;whiteSpace=wrap;html=1;" parent="1" vertex="1">
          <mxGeometry x="1040" y="180" width="80" height="50" as="geometry" />
        </mxCell>
        <mxCell id="t2NmC8bgMb-thkgO7jFg-109" value="" style="endArrow=none;html=1;rounded=0;entryX=0;entryY=1;entryDx=0;entryDy=0;" parent="1" target="t2NmC8bgMb-thkgO7jFg-108" edge="1">
          <mxGeometry width="50" height="50" relative="1" as="geometry">
            <mxPoint x="1010" y="250" as="sourcePoint" />
            <mxPoint x="1060" y="200" as="targetPoint" />
          </mxGeometry>
        </mxCell>
        <mxCell id="t2NmC8bgMb-thkgO7jFg-111" value="(1,1)" style="text;html=1;align=center;verticalAlign=middle;resizable=0;points=[];autosize=1;strokeColor=none;fillColor=none;" parent="1" vertex="1">
          <mxGeometry x="880" y="45" width="50" height="30" as="geometry" />
        </mxCell>
        <mxCell id="t2NmC8bgMb-thkgO7jFg-112" value="(0,n)" style="text;html=1;align=center;verticalAlign=middle;resizable=0;points=[];autosize=1;strokeColor=none;fillColor=none;" parent="1" vertex="1">
          <mxGeometry x="720" y="45" width="50" height="30" as="geometry" />
        </mxCell>
        <mxCell id="t2NmC8bgMb-thkgO7jFg-113" value="" style="endArrow=none;html=1;rounded=0;exitX=1;exitY=0.5;exitDx=0;exitDy=0;entryX=0;entryY=0.5;entryDx=0;entryDy=0;" parent="1" source="pTcU2Q1t1XkEA1g0GBqn-14" target="pTcU2Q1t1XkEA1g0GBqn-3" edge="1">
          <mxGeometry width="50" height="50" relative="1" as="geometry">
            <mxPoint x="360" y="320" as="sourcePoint" />
            <mxPoint x="530" y="320" as="targetPoint" />
          </mxGeometry>
        </mxCell>
        <mxCell id="t2NmC8bgMb-thkgO7jFg-114" value="" style="endArrow=none;html=1;rounded=0;exitX=1;exitY=0.5;exitDx=0;exitDy=0;entryX=0;entryY=0.5;entryDx=0;entryDy=0;" parent="1" source="pTcU2Q1t1XkEA1g0GBqn-2" target="pTcU2Q1t1XkEA1g0GBqn-14" edge="1">
          <mxGeometry width="50" height="50" relative="1" as="geometry">
            <mxPoint x="210" y="280" as="sourcePoint" />
            <mxPoint x="610" y="280" as="targetPoint" />
          </mxGeometry>
        </mxCell>
        <mxCell id="pTcU2Q1t1XkEA1g0GBqn-14" value="pertenecer" style="rhombus;whiteSpace=wrap;html=1;" parent="1" vertex="1">
          <mxGeometry x="380" y="240" width="80" height="80" as="geometry" />
        </mxCell>
        <mxCell id="t2NmC8bgMb-thkgO7jFg-116" value="" style="endArrow=none;html=1;rounded=0;exitX=1;exitY=0.5;exitDx=0;exitDy=0;entryX=0;entryY=0.5;entryDx=0;entryDy=0;" parent="1" source="t2NmC8bgMb-thkgO7jFg-17" target="t2NmC8bgMb-thkgO7jFg-118" edge="1">
          <mxGeometry width="50" height="50" relative="1" as="geometry">
            <mxPoint x="560" y="362" as="sourcePoint" />
            <mxPoint x="580" y="520" as="targetPoint" />
          </mxGeometry>
        </mxCell>
        <mxCell id="t2NmC8bgMb-thkgO7jFg-118" value="entrenar" style="rhombus;whiteSpace=wrap;html=1;" parent="1" vertex="1">
          <mxGeometry x="530" y="334" width="80" height="80" as="geometry" />
        </mxCell>
        <mxCell id="t2NmC8bgMb-thkgO7jFg-119" value="" style="endArrow=none;html=1;rounded=0;entryX=0.5;entryY=1;entryDx=0;entryDy=0;exitX=1;exitY=0;exitDx=0;exitDy=0;" parent="1" source="t2NmC8bgMb-thkgO7jFg-118" target="pTcU2Q1t1XkEA1g0GBqn-3" edge="1">
          <mxGeometry width="50" height="50" relative="1" as="geometry">
            <mxPoint x="630" y="370" as="sourcePoint" />
            <mxPoint x="660" y="320" as="targetPoint" />
          </mxGeometry>
        </mxCell>
        <mxCell id="t2NmC8bgMb-thkgO7jFg-122" value="nombre" style="ellipse;whiteSpace=wrap;html=1;" parent="1" vertex="1">
          <mxGeometry x="-60" y="-55" width="80" height="50" as="geometry" />
        </mxCell>
        <mxCell id="t2NmC8bgMb-thkgO7jFg-123" value="" style="endArrow=none;html=1;rounded=0;entryX=1;entryY=1;entryDx=0;entryDy=0;exitX=0;exitY=0.25;exitDx=0;exitDy=0;" parent="1" source="pTcU2Q1t1XkEA1g0GBqn-1" target="t2NmC8bgMb-thkgO7jFg-122" edge="1">
          <mxGeometry width="50" height="50" relative="1" as="geometry">
            <mxPoint x="100" y="76" as="sourcePoint" />
            <mxPoint x="-31" y="52" as="targetPoint" />
          </mxGeometry>
        </mxCell>
        <mxCell id="t2NmC8bgMb-thkgO7jFg-126" value="(0,n)" style="text;html=1;align=center;verticalAlign=middle;resizable=0;points=[];autosize=1;strokeColor=none;fillColor=none;" parent="1" vertex="1">
          <mxGeometry x="670" y="100" width="50" height="30" as="geometry" />
        </mxCell>
        <mxCell id="t2NmC8bgMb-thkgO7jFg-127" value="(1,1)" style="text;html=1;align=center;verticalAlign=middle;resizable=0;points=[];autosize=1;strokeColor=none;fillColor=none;" parent="1" vertex="1">
          <mxGeometry x="620" y="220" width="50" height="30" as="geometry" />
        </mxCell>
        <mxCell id="t2NmC8bgMb-thkgO7jFg-128" value="&lt;u&gt;n&lt;/u&gt; &lt;u&gt;o&lt;/u&gt;&amp;nbsp;&lt;u&gt;m&lt;/u&gt;&amp;nbsp;&lt;u&gt;b&lt;/u&gt; &lt;u&gt;r&lt;/u&gt;&amp;nbsp;&lt;u&gt;e&lt;/u&gt;" style="ellipse;whiteSpace=wrap;html=1;" parent="1" vertex="1">
          <mxGeometry x="770" y="380" width="80" height="50" as="geometry" />
        </mxCell>
        <mxCell id="t2NmC8bgMb-thkgO7jFg-129" value="#id" style="ellipse;whiteSpace=wrap;html=1;" parent="1" vertex="1">
          <mxGeometry x="590" y="392" width="80" height="50" as="geometry" />
        </mxCell>
        <mxCell id="t2NmC8bgMb-thkgO7jFg-130" value="" style="endArrow=none;html=1;rounded=0;entryX=0.5;entryY=0;entryDx=0;entryDy=0;" parent="1" target="t2NmC8bgMb-thkgO7jFg-129" edge="1">
          <mxGeometry width="50" height="50" relative="1" as="geometry">
            <mxPoint x="680" y="310" as="sourcePoint" />
            <mxPoint x="730" y="402" as="targetPoint" />
          </mxGeometry>
        </mxCell>
        <mxCell id="t2NmC8bgMb-thkgO7jFg-131" value="&lt;u&gt;n&lt;/u&gt; &lt;u&gt;o&lt;/u&gt;&amp;nbsp;&lt;u&gt;m&lt;/u&gt;&amp;nbsp;&lt;u&gt;b&lt;/u&gt; &lt;u&gt;r&lt;/u&gt;&amp;nbsp;&lt;u&gt;e&lt;/u&gt;" style="ellipse;whiteSpace=wrap;html=1;" parent="1" vertex="1">
          <mxGeometry x="450" y="-260" width="80" height="50" as="geometry" />
        </mxCell>
        <mxCell id="AsBccKep7YdxuRnNQejj-1" value="" style="endArrow=none;html=1;rounded=0;entryX=0.5;entryY=1;entryDx=0;entryDy=0;exitX=0.75;exitY=0;exitDx=0;exitDy=0;" edge="1" parent="1" target="AsBccKep7YdxuRnNQejj-2" source="pTcU2Q1t1XkEA1g0GBqn-3">
          <mxGeometry width="50" height="50" relative="1" as="geometry">
            <mxPoint x="680" y="260" as="sourcePoint" />
            <mxPoint x="685" y="110" as="targetPoint" />
          </mxGeometry>
        </mxCell>
        <mxCell id="AsBccKep7YdxuRnNQejj-2" value="juega 2" style="rhombus;whiteSpace=wrap;html=1;" vertex="1" parent="1">
          <mxGeometry x="705" y="140" width="80" height="80" as="geometry" />
        </mxCell>
        <mxCell id="AsBccKep7YdxuRnNQejj-3" value="" style="endArrow=none;html=1;rounded=0;entryX=0.75;entryY=1;entryDx=0;entryDy=0;exitX=0.5;exitY=0;exitDx=0;exitDy=0;" edge="1" parent="1" source="AsBccKep7YdxuRnNQejj-2" target="pTcU2Q1t1XkEA1g0GBqn-4">
          <mxGeometry width="50" height="50" relative="1" as="geometry">
            <mxPoint x="650" y="30" as="sourcePoint" />
            <mxPoint x="680" y="110" as="targetPoint" />
          </mxGeometry>
        </mxCell>
        <mxCell id="AsBccKep7YdxuRnNQejj-4" value="(1,1)" style="text;html=1;align=center;verticalAlign=middle;resizable=0;points=[];autosize=1;strokeColor=none;fillColor=none;" vertex="1" parent="1">
          <mxGeometry x="670" y="220" width="50" height="30" as="geometry" />
        </mxCell>
        <mxCell id="AsBccKep7YdxuRnNQejj-5" value="(0,n)" style="text;html=1;align=center;verticalAlign=middle;resizable=0;points=[];autosize=1;strokeColor=none;fillColor=none;" vertex="1" parent="1">
          <mxGeometry x="620" y="100" width="50" height="30" as="geometry" />
        </mxCell>
      </root>
    </mxGraphModel>
  </diagram>
</mxfile>
